<?xml version="1.0" standalone="no"?><!DOCTYPE svg PUBLIC "-//W3C//DTD SVG 1.1//EN" "http://www.w3.org/Graphics/SVG/1.1/DTD/svg11.dtd"><svg t="1588987179858" class="icon" viewBox="0 0 1024 1024" version="1.1" xmlns="http://www.w3.org/2000/svg" p-id="4678" xmlns:xlink="http://www.w3.org/1999/xlink" width="200" height="200"><defs><style type="text/css"></style></defs><path d="M838.656 486.4c-52.224 0-98.304 27.648-123.904 69.12L500.224 485.888v-2.048c0-28.672-5.12-56.32-14.848-81.92l133.12-94.72c32.768 32.768 77.824 53.248 127.488 53.248 98.816 0 179.2-80.384 179.2-179.2s-80.384-179.2-179.2-179.2-179.2 80.384-179.2 179.2c0 21.504 3.584 41.984 10.752 60.928L446.464 335.872c-42.496-50.176-105.472-82.432-176.128-82.432-126.976 0-230.4 103.424-230.4 230.4s103.424 230.4 230.4 230.4c30.208 0 58.368-5.632 84.992-16.384l97.792 132.096c-17.92 20.48-28.672 47.104-28.672 76.288 0 63.488 51.712 115.2 115.2 115.2s115.2-51.712 115.2-115.2-51.712-115.2-115.2-115.2c-6.144 0-12.288 0.512-18.432 1.536l-99.328-134.656c29.184-25.6 52.224-58.368 66.048-95.744l205.824 67.072v3.072c0 80.384 65.536 145.92 145.92 145.92s145.92-65.536 145.92-145.92-66.56-145.92-146.944-145.92z m-92.16-407.04c56.32 0 102.4 46.08 102.4 102.4s-46.08 102.4-102.4 102.4-102.4-46.08-102.4-102.4 45.568-102.4 102.4-102.4z m-168.96 826.88c0 20.992-17.408 38.4-38.4 38.4s-38.4-17.408-38.4-38.4c0-15.36 9.216-28.672 22.016-34.816 0.512 0 0.512 0 1.024-0.512 4.608-2.048 10.24-3.072 15.36-3.072 20.992 0 38.4 17.408 38.4 38.4z m-307.2-268.8c-84.48 0-153.6-69.12-153.6-153.6s69.12-153.6 153.6-153.6 153.6 69.12 153.6 153.6-69.12 153.6-153.6 153.6z m568.32 64c-37.888 0-69.12-31.232-69.12-69.12s31.232-69.12 69.12-69.12 69.12 31.232 69.12 69.12-31.232 69.12-69.12 69.12z" p-id="4679"></path></svg>