<?xml version="1.0" standalone="no"?><!DOCTYPE svg PUBLIC "-//W3C//DTD SVG 1.1//EN" "http://www.w3.org/Graphics/SVG/1.1/DTD/svg11.dtd"><svg t="1588059734377" class="icon" viewBox="0 0 1024 1024" version="1.1" xmlns="http://www.w3.org/2000/svg" p-id="4087" xmlns:xlink="http://www.w3.org/1999/xlink" width="200" height="200"><defs><style type="text/css"></style></defs><path d="M471.218347 566.784H334.002347a54.869333 54.869333 0 0 1-54.869334-54.869333v-57.856L129.202347 621.056l160.256 172.117333v-60.330666c0-30.293333 24.490667-54.869333 54.784-54.869334H497.501013a54.869333 54.869333 0 0 1 0 109.738667H399.11168v144.896a54.869333 54.869333 0 0 1-94.976 37.376L14.685013 659.114667a54.869333 54.869333 0 0 1-0.597333-74.069334l279.04-310.869333a54.869333 54.869333 0 0 1 95.744 36.693333v146.176h159.744c1.365333 0 2.816 0 4.181333 0.170667h137.216c30.293333 0 54.869333 24.576 54.869334 54.869333v57.856l149.930666-166.997333-160.256-172.117333v56.661333a54.869333 54.869333 0 0 1-54.784 54.869333H526.514347a54.869333 54.869333 0 0 1 0-109.653333h98.389333V91.306667A54.869333 54.869333 0 0 1 719.87968 54.016l289.450667 310.869333c19.285333 20.821333 19.626667 52.906667 0.597333 74.069334l-279.04 310.869333a54.869333 54.869333 0 0 1-95.744-36.693333V566.954667H475.39968c-1.365333 0-2.816 0-4.181333-0.170667z" p-id="4088"></path></svg>