<?xml version="1.0" standalone="no"?><!DOCTYPE svg PUBLIC "-//W3C//DTD SVG 1.1//EN" "http://www.w3.org/Graphics/SVG/1.1/DTD/svg11.dtd"><svg t="1587436841951" class="icon" viewBox="0 0 1024 1024" version="1.1" xmlns="http://www.w3.org/2000/svg" p-id="1103" xmlns:xlink="http://www.w3.org/1999/xlink" width="200" height="200"><defs><style type="text/css"></style></defs><path d="M894.91 992H129.09c-18.13 0-32.82-14.69-32.82-32.82V336.71c0-10.64 5.16-20.62 13.85-26.77l383.64-271.9c11.39-8.07 26.63-8.06 38 0.03l382.17 271.89a32.815 32.815 0 0 1 13.79 26.74v622.47c0.01 18.14-14.68 32.83-32.81 32.83z m-733-65.64h700.17V353.64L512.71 105.07l-350.79 248.6v572.69h-0.01z" p-id="1104"></path><path d="M730.8 746.78H293.2c-18.13 0-32.82-14.69-32.82-32.82s14.69-32.82 32.82-32.82h437.6c18.13 0 32.82 14.69 32.82 32.82 0.01 18.13-14.68 32.82-32.82 32.82zM730.8 511.9H293.2c-18.13 0-32.82-14.69-32.82-32.82s14.69-32.82 32.82-32.82h437.6c18.13 0 32.82 14.69 32.82 32.82 0.01 18.13-14.68 32.82-32.82 32.82z" p-id="1105"></path></svg>