<?xml version="1.0" standalone="no"?><!DOCTYPE svg PUBLIC "-//W3C//DTD SVG 1.1//EN" "http://www.w3.org/Graphics/SVG/1.1/DTD/svg11.dtd"><svg t="1589350520608" class="icon" viewBox="0 0 1024 1024" version="1.1" xmlns="http://www.w3.org/2000/svg" p-id="2559" xmlns:xlink="http://www.w3.org/1999/xlink" width="200" height="200"><defs><style type="text/css"></style></defs><path d="M512 1024c-282.778 0-512-229.222-512-512 0-282.752 229.222-512 512-512s512 229.248 512 512c0 282.778-229.222 512-512 512zM752.82 342.4c-9.265-9.262-22.063-14.991-36.198-14.991s-26.934 5.729-36.199 14.991l-229.299 229.273-108.595-108.595c-9.323-9.644-22.375-15.631-36.828-15.631-28.277 0-51.2 22.923-51.2 51.2 0 14.451 5.987 27.504 15.616 36.814l144.807 144.833c9.266 9.27 22.069 15.003 36.211 15.003s26.945-5.734 36.211-15.003l265.472-265.498c9.262-9.265 14.991-22.063 14.991-36.198s-5.729-26.934-14.991-36.199z" p-id="2560"></path></svg>
