<?xml version="1.0" standalone="no"?><!DOCTYPE svg PUBLIC "-//W3C//DTD SVG 1.1//EN" "http://www.w3.org/Graphics/SVG/1.1/DTD/svg11.dtd"><svg t="1587436345712" class="icon" viewBox="0 0 1055 1024" version="1.1" xmlns="http://www.w3.org/2000/svg" p-id="15076" xmlns:xlink="http://www.w3.org/1999/xlink" width="206.0546875" height="200"><defs><style type="text/css"></style></defs><path d="M151.5776 313.83552a22.4768 22.4768 0 0 0-14.60736 10.30144 22.5024 22.5024 0 0 0-2.60608 17.70496 22.69696 22.69696 0 0 0 26.62912 16.41472c26.45504-5.57056 79.70304-14.91968 139.09504-14.91968 41.00608 0 77.94688 4.49024 109.80352 13.34272 1.96608 0.54784 3.9936 0.82432 6.02624 0.82432a22.66112 22.66112 0 0 0 21.4272-15.37536 22.46656 22.46656 0 0 0-1.39776-17.88416 22.85568 22.85568 0 0 0-14.04928-11.3152c-52.37248-14.592-115.37408-18.61632-186.09664-11.88864a754.944 754.944 0 0 0-84.224 12.79488zM421.89312 588.66176c-52.3776-14.59712-115.36896-18.62144-186.09664-11.88864a755.456 755.456 0 0 0-84.21376 12.79488 22.5024 22.5024 0 0 0-14.60736 10.29632 22.52288 22.52288 0 0 0-2.6112 17.71008 22.69696 22.69696 0 0 0 26.624 16.4096c26.46016-5.57056 79.72352-14.91456 139.09504-14.91456 41.00608 0 77.94688 4.49024 109.80352 13.34272 1.9712 0.54272 3.99872 0.82432 6.02624 0.82432a22.66624 22.66624 0 0 0 21.4272-15.38048 22.45632 22.45632 0 0 0-1.39776-17.87904 22.87104 22.87104 0 0 0-14.04928-11.3152zM156.29312 502.02624c1.57184 0 3.1488-0.16384 4.69504-0.49152 26.45504-5.57056 79.70304-14.91968 139.09504-14.91968 41.00608 0 77.94688 4.49024 109.80352 13.34272 1.96608 0.54784 3.9936 0.82432 6.02624 0.82432a22.66112 22.66112 0 0 0 21.4272-15.37536 22.46656 22.46656 0 0 0-1.39776-17.88416 22.85568 22.85568 0 0 0-14.04416-11.3152c-52.3776-14.592-115.37408-18.61632-186.09664-11.88864a754.46272 754.46272 0 0 0-84.21376 12.8 22.47168 22.47168 0 0 0-14.60736 10.29632 22.50752 22.50752 0 0 0-2.6112 17.70496 22.6816 22.6816 0 0 0 21.92384 16.90624z" fill="" p-id="15077"></path><path d="M1014.59968 166.62016C935.58272 140.99456 852.97152 128 769.04448 128c-125.16352 0-217.27232 29.39392-240.81408 37.7088C450.08896 140.70272 368.47104 128 285.57312 128c-131.1488 0-226.08384 32.29696-243.78368 38.77376a28.45696 28.45696 0 0 0-18.6112 26.63936v644.03968c0 7.56736 2.95424 14.68416 8.31488 20.04992a28.17536 28.17536 0 0 0 20.04992 8.31488 28.2624 28.2624 0 0 0 9.82528-1.75616c56.59136-20.85888 126.65856-31.44192 208.256-31.44192 115.39968 0 217.86112 21.0944 246.51264 27.56096 0.83968 0.18944 1.69472 0.31232 2.54976 0.42496a28.19072 28.19072 0 0 0 26.15296 3.45088c56.59136-20.85888 126.65344-31.44192 208.256-31.44192 115.4048 0 217.86112 21.0944 246.51264 27.56096a28.3904 28.3904 0 0 0 34.60608-27.6736V193.61792a28.20096 28.20096 0 0 0-19.61472-26.99776z m-509.21984 39.44448v605.46048c-47.77472-9.61536-136.83712-24.26368-235.76064-24.26368-76.40064 0-144.01024 8.91904-201.08288 26.51648V205.5424c32.39424-10.5472 111.71328-32.1792 217.03168-32.1792 74.99264 0 148.92544 10.99776 219.81184 32.70144z m483.47648 0v605.46048c-47.77472-9.61536-136.83712-24.26368-235.76064-24.26368-76.40064 0-144.01024 8.91904-201.08288 26.51648V205.5424c32.38912-10.5472 111.70816-32.1792 217.04192-32.1792 74.97216-0.00512 148.89984 10.99776 219.8016 32.70144z" fill="" p-id="15078"></path><path d="M618.71616 341.8368a22.69696 22.69696 0 0 0 26.62912 16.41472c26.45504-5.57056 79.69792-14.91968 139.08992-14.91968 41.00608 0 77.952 4.49024 109.80864 13.34272 1.96608 0.54784 3.9936 0.82432 6.02624 0.82432a22.66624 22.66624 0 0 0 21.4272-15.37536 22.46656 22.46656 0 0 0-1.39776-17.88416 22.85568 22.85568 0 0 0-14.04928-11.3152c-52.3776-14.58688-115.36384-18.60608-186.09664-11.88864a755.56864 755.56864 0 0 0-84.21888 12.8 22.4768 22.4768 0 0 0-14.60736 10.30144 22.46144 22.46144 0 0 0-2.688 17.38752l0.0768 0.31232zM906.24512 588.66176c-52.37248-14.592-115.36384-18.61632-186.09664-11.88864a755.53792 755.53792 0 0 0-84.21888 12.79488 22.49216 22.49216 0 0 0-14.60736 10.30144 22.46144 22.46144 0 0 0-2.69312 17.36192l0.08704 0.34304a22.69696 22.69696 0 0 0 26.62912 16.4096c26.46016-5.57056 79.7184-14.91456 139.09504-14.91456 41.00608 0 77.952 4.49024 109.7984 13.34272 1.9712 0.54272 3.99872 0.82432 6.03136 0.82432a22.6816 22.6816 0 0 0 21.4272-15.38048 22.4256 22.4256 0 0 0-1.39776-17.87392 22.8864 22.8864 0 0 0-14.0544-11.32032zM640.64512 502.02624c1.57696 0 3.15392-0.16384 4.70016-0.49152 26.45504-5.57056 79.69792-14.91968 139.08992-14.91968 41.00608 0 77.952 4.49024 109.80864 13.34272 1.96608 0.54784 3.9936 0.82432 6.02624 0.82432a22.66624 22.66624 0 0 0 21.4272-15.37536 22.46656 22.46656 0 0 0-1.39776-17.88416 22.85568 22.85568 0 0 0-14.04928-11.3152c-52.3776-14.592-115.36384-18.61632-186.09664-11.88864a755.36896 755.36896 0 0 0-84.21888 12.8 22.47168 22.47168 0 0 0-14.60736 10.29632 22.4768 22.4768 0 0 0-2.69312 17.36704l0.08704 0.33792a22.6816 22.6816 0 0 0 21.92384 16.90624z" fill="" p-id="15079"></path></svg>