<?xml version="1.0" standalone="no"?><!DOCTYPE svg PUBLIC "-//W3C//DTD SVG 1.1//EN" "http://www.w3.org/Graphics/SVG/1.1/DTD/svg11.dtd"><svg t="1587434338581" class="icon" viewBox="0 0 1024 1024" version="1.1" xmlns="http://www.w3.org/2000/svg" p-id="8868" xmlns:xlink="http://www.w3.org/1999/xlink" width="200" height="200"><defs><style type="text/css"></style></defs><path d="M865.00000039 125c-10.00000019-5.0000001-21.9999999-3.9999999-30.00000058 2.99999971-30.9999999 24.00000029-83.00000039 38.00000039-141.99999962 38.00000039-57.9999999 0-104.0000001-12.9999999-143.99999999-38.99999971C500.99999961 94.0000001 443.9999999 64.00000039 352.00000039 64.00000039 261.00000019 64.00000039 185.00000029 96.99999981 152 130.0000001c-6.00000029 5.0000001-9 12.9999999-9 20.99999971v780.00000029c0 7.9999998 2.99999971 15.00000029 7.9999998 20.99999971 5.0000001 5.0000001 12.9999999 9 20.00000039 9 7.9999998 0 15.00000029-2.99999971 19.99999952-9 5.0000001-5.0000001 7.9999998-12.9999999 8.00000068-20.99999971V640.00000039c29.00000039-21.9999999 83.99999971-42.00000029 151.9999998-42.00000029 72 0 118.0000002 20.99999971 164.99999971 52.9999998 48.9999999 33.00000029 106.9999998 48.9999999 176.0000001 48.9999999 73.00000019 0 136.00000019-18 177.00000029-50.00000009 6.99999961-6.00000029 11.00000039-14.0000001 10.99999951-23.0000001V150.9999998c1.00000019-11.00000039-5.0000001-20.99999971-14.99999941-25.9999998z m-41.0000001 486C792.0000002 630.0000002 746 641.9999999 693.0000002 641.9999999c-57.9999999 0-104.0000001-12.9999999-144-38.99999971-47.99999971-33.00000029-105.00000029-63-196.99999981-63-60.00000029 0-113.0000001 14.0000001-152.00000068 32.99999942V163.99999971C229.0000001 143 284.00000029 122.00000029 352.00000039 122.00000029c72 0 118.0000002 20.99999971 164.99999971 52.99999981 48.9999999 33.00000029 106.9999998 48.9999999 176.00000009 48.9999999 48.9999999 0 93.9999999-7.9999998 131.0000001-24.00000029v411.00000029z m0 0" fill="" p-id="8869"></path></svg>