<?xml version="1.0" standalone="no"?><!DOCTYPE svg PUBLIC "-//W3C//DTD SVG 1.1//EN" "http://www.w3.org/Graphics/SVG/1.1/DTD/svg11.dtd"><svg t="1587454776687" class="icon" viewBox="0 0 1046 1024" version="1.1" xmlns="http://www.w3.org/2000/svg" p-id="11283" xmlns:xlink="http://www.w3.org/1999/xlink" width="204.296875" height="200"><defs><style type="text/css"></style></defs><path d="M924.16 322.048c-23.04 0-35.84 13.312-35.84 35.84v487.424c0 28.672-12.288 40.96-40.96 40.96H179.712c-28.672 0-40.96-12.288-40.96-40.96V178.176c0-28.672 12.288-40.96 40.96-40.96H616.96c12.288-1.024 35.328-9.728 35.328-35.84 0-25.6-21.504-35.328-35.84-35.84l-81.408 0.512H170.496c-57.344 0-103.424 46.592-103.424 103.424V855.04c0 56.832 46.592 103.424 103.424 103.424h686.08c57.344 0 103.424-46.592 103.424-103.424V357.888c0-22.528-12.8-35.84-35.84-35.84z" p-id="11284"></path><path d="M966.144 77.312c-7.68-7.68-18.432-12.288-29.184-12.288s-21.504 4.096-29.184 12.288L374.272 613.376c-7.68 7.68-12.288 18.432-12.288 29.184 0 11.264 4.096 21.504 12.288 29.184 7.68 7.68 18.432 12.288 29.184 12.288 11.264 0 21.504-4.096 29.184-12.288L966.144 136.192c7.68-7.68 12.288-17.92 12.288-29.184s-4.608-21.504-12.288-29.696z" p-id="11285"></path></svg>