<?xml version="1.0" standalone="no"?><!DOCTYPE svg PUBLIC "-//W3C//DTD SVG 1.1//EN" "http://www.w3.org/Graphics/SVG/1.1/DTD/svg11.dtd"><svg t="1589350866015" class="icon" viewBox="0 0 1024 1024" version="1.1" xmlns="http://www.w3.org/2000/svg" p-id="6437" xmlns:xlink="http://www.w3.org/1999/xlink" width="200" height="200"><defs><style type="text/css"></style></defs><path d="M512 0C229.12 0 0 229.12 0 512s229.12 512 512 512 512-229.12 512-512S794.88 0 512 0z m256 576H576v192c0 35.84-28.16 64-64 64s-64-28.16-64-64V576H256c-35.84 0-64-28.16-64-64s28.16-64 64-64h192V256c0-35.84 28.16-64 64-64s64 28.16 64 64v192h192c35.84 0 64 28.16 64 64s-28.16 64-64 64z" p-id="6438"></path></svg>