<?xml version="1.0" standalone="no"?><!DOCTYPE svg PUBLIC "-//W3C//DTD SVG 1.1//EN" "http://www.w3.org/Graphics/SVG/1.1/DTD/svg11.dtd"><svg t="1587436051291" class="icon" viewBox="0 0 1024 1024" version="1.1" xmlns="http://www.w3.org/2000/svg" p-id="7539" xmlns:xlink="http://www.w3.org/1999/xlink" width="200" height="200"><defs><style type="text/css"></style></defs><path d="M304 512c17.673 0 32 14.327 32 32 0 97.202 78.798 176 176 176s176-78.798 176-176c0-17.673 14.327-32 32-32h238.03l-112-448H177.97l-112 448H304z m-29.885 64H64v384h896V576H749.885C734.241 693.42 633.698 784 512 784s-222.24-90.58-237.885-208z m749.398-64h0.487v448c0 35.346-28.654 64-64 64H64c-35.346 0-64-28.654-64-64V512h0.487a64 64 0 0 1 1.424-7.644L115.88 48.478C123.003 19.987 148.602 0 177.97 0h668.06c29.368 0 54.967 19.987 62.09 48.478l113.97 455.878a64 64 0 0 1 1.423 7.644z" p-id="7540"></path></svg>
