<?xml version="1.0" standalone="no"?><!DOCTYPE svg PUBLIC "-//W3C//DTD SVG 1.1//EN" "http://www.w3.org/Graphics/SVG/1.1/DTD/svg11.dtd"><svg t="1589792231191" class="icon" viewBox="0 0 1024 1024" version="1.1" xmlns="http://www.w3.org/2000/svg" p-id="9784" xmlns:xlink="http://www.w3.org/1999/xlink" width="200" height="200"><defs><style type="text/css"></style></defs><path d="M512 624.384c-216.7296 0-403.6096 73.1136-493.2096 197.2224l2.2528 0.9216A129.024 129.024 0 0 0 0 892.8768c0 71.5264 58.0096 129.4336 130.048 130.8672V1024h761.1904C964.608 1024 1024 965.2736 1024 892.8768c0-29.952-10.5472-57.2416-27.648-79.3088l2.048-1.5872c-92.16-118.9376-275.3024-187.5968-486.4-187.5968M512 0C377.344 0 268.1856 122.9824 268.1856 274.7392c0 151.7056 109.1584 274.7392 243.8144 274.7392 134.656 0 243.8144-123.0336 243.8144-274.7392C755.8144 122.9824 646.656 0 512 0m0 684.3392c176.6912 0 328.0384 50.176 414.72 135.8336l23.808 30.72c6.8096 8.7552 14.9504 23.2448 14.9504 41.984 0 39.2704-33.28 71.168-74.24 71.168H144.5376l-13.312-0.256c-40.0896-0.8192-72.704-32.6144-72.704-70.912 0-13.1072 3.7888-25.6512 11.264-37.2736l11.776-18.0736c82.944-95.0272 244.736-153.1904 430.4384-153.1904M512 59.904c102.1952 0 185.344 96.3584 185.344 214.784 0 118.4256-83.1488 214.784-185.344 214.784-102.144 0-185.2928-96.3584-185.2928-214.784 0-118.4256 83.1488-214.784 185.344-214.784" p-id="9785"></path></svg>