<?xml version="1.0" standalone="no"?><!DOCTYPE svg PUBLIC "-//W3C//DTD SVG 1.1//EN" "http://www.w3.org/Graphics/SVG/1.1/DTD/svg11.dtd"><svg t="1586931662698" class="icon" viewBox="0 0 1024 1024" version="1.1" xmlns="http://www.w3.org/2000/svg" p-id="1349" xmlns:xlink="http://www.w3.org/1999/xlink" width="200" height="200"><defs><style type="text/css"></style></defs><path d="M736 545.6H288c-18.56 0-33.6-15.04-33.6-33.6 0-18.56 15.04-33.6 33.6-33.6h448c18.56 0 33.6 15.04 33.6 33.6 0 18.56-15.04 33.6-33.6 33.6zM736 744.22H288c-18.56 0-33.6-15.04-33.6-33.6s15.04-33.6 33.6-33.6h448c18.56 0 33.6 15.04 33.6 33.6s-15.04 33.6-33.6 33.6zM736 346.96H288c-18.56 0-33.6-15.04-33.6-33.6s15.04-33.6 33.6-33.6h448c18.56 0 33.6 15.04 33.6 33.6 0 18.56-15.04 33.6-33.6 33.6z" p-id="1350"></path><path d="M892.8 960H131.2c-18.56 0-33.6-15.04-33.6-33.6V97.6c0-18.56 15.04-33.6 33.6-33.6h761.6c18.56 0 33.6 15.04 33.6 33.6v828.8c0 18.56-15.04 33.6-33.6 33.6z m-728-67.2h694.4V131.2H164.8v761.6z" p-id="1351"></path></svg>