<?xml version="1.0" standalone="no"?><!DOCTYPE svg PUBLIC "-//W3C//DTD SVG 1.1//EN" "http://www.w3.org/Graphics/SVG/1.1/DTD/svg11.dtd"><svg t="1587436451559" class="icon" viewBox="0 0 1024 1024" version="1.1" xmlns="http://www.w3.org/2000/svg" p-id="17517" xmlns:xlink="http://www.w3.org/1999/xlink" width="200" height="200"><defs><style type="text/css"></style></defs><path d="M736 300.8H268.8c-19.2 0-32-12.8-32-38.4 0-19.2 12.8-38.4 32-38.4h467.2c19.2 0 32 12.8 32 38.4 0 19.2-12.8 38.4-32 38.4zM537.6 512H268.8c-19.2 0-32-19.2-32-38.4s12.8-38.4 32-38.4h268.8c19.2 0 32 12.8 32 38.4 0 19.2-12.8 38.4-32 38.4z m-134.4 211.2H268.8c-19.2 0-32-12.8-32-38.4s12.8-38.4 32-38.4h134.4c19.2 0 32 12.8 32 38.4s-12.8 38.4-32 38.4z" p-id="17518"></path><path d="M870.4 19.2H134.4C96 19.2 70.4 51.2 70.4 89.6v844.8c0 38.4 32 70.4 64 70.4h198.4c19.2 0 32-12.8 32-38.4s-12.8-38.4-32-38.4H134.4V89.6h729.6v243.2c0 19.2 12.8 38.4 32 38.4 6.4 0 19.2-6.4 25.6-12.8 6.4-6.4 12.8-12.8 12.8-25.6V89.6c0-38.4-25.6-70.4-64-70.4zM435.2 960v19.2c6.4-6.4 6.4-6.4 6.4-12.8s-6.4-6.4-6.4-6.4z" p-id="17519"></path><path d="M742.4 480l-313.6 326.4-12.8 166.4c0 12.8 12.8 25.6 25.6 25.6l160-12.8 313.6-326.4c25.6-25.6 25.6-70.4 0-102.4L832 480c-25.6-32-64-32-89.6 0zM576 921.6l-83.2 6.4 6.4-89.6 294.4-307.2 76.8 83.2L576 921.6z" p-id="17520"></path></svg>