<?xml version="1.0" standalone="no"?><!DOCTYPE svg PUBLIC "-//W3C//DTD SVG 1.1//EN" "http://www.w3.org/Graphics/SVG/1.1/DTD/svg11.dtd"><svg t="1587435682857" class="icon" viewBox="0 0 1024 1024" version="1.1" xmlns="http://www.w3.org/2000/svg" p-id="2743" xmlns:xlink="http://www.w3.org/1999/xlink" width="200" height="200"><defs><style type="text/css"></style></defs><path d="M936.96 980.48c-3.072-226.816-100.352-376.832-314.368-464.896 214.016-88.576 311.296-238.08 311.296-467.456 0-18.944-13.312-33.28-37.888-33.28-24.576 0-37.888 14.336-37.888 33.28 0 224.256-111.104 363.008-340.48 434.688-226.304-74.24-340.48-209.92-340.48-434.688 0-18.944-13.312-33.28-37.888-33.28-24.576 0-37.888 14.336-37.888 33.28 0 172.032 53.76 298.496 174.592 391.68 40.448 31.232 87.04 51.712 139.776 73.216-214.016 88.576-311.296 238.08-314.368 464.896 0 9.728 1.024 18.944 7.168 24.064 9.216 7.168 18.432 9.728 31.232 9.728 24.576 0 37.888-14.336 37.888-33.28 0-224.256 111.104-363.008 340.48-434.688 226.304 74.24 340.48 209.92 340.48 434.688 0 9.728 1.024 18.944 7.168 24.064 9.216 7.168 18.432 9.728 31.232 9.728 26.624 1.536 37.888-12.288 39.936-31.744z" p-id="2744"></path><path d="M337.408 304.64c0 8.704 5.632 17.408 11.264 21.504 5.632 4.096 16.896 8.704 28.16 8.704l282.624-2.56c22.528 0 39.936-13.312 39.936-30.72s-16.896-30.208-39.424-30.208l-282.624 2.56c-19.456-2.048-39.424 13.312-39.936 30.72zM292.352 194.048c8.192 6.656 16.896 8.704 28.16 8.704l395.776-3.584c22.528 0 39.936-13.312 39.936-30.72s-16.896-30.208-39.424-30.208l-395.776 3.584c-22.528 0-39.936 13.312-39.936 30.72 0 8.704 2.56 15.36 11.264 21.504zM699.392 723.968c0-17.408-16.896-30.208-39.424-30.208l-282.624 2.56c-22.528 0-39.936 13.312-39.936 30.72 0 8.704 5.632 17.408 11.264 21.504 5.632 4.096 16.896 8.704 28.16 8.704l282.624-2.56c19.968 2.048 39.936-13.312 39.936-30.72zM716.8 823.808l-395.776 3.584c-22.528 0-39.936 13.312-39.936 30.72 0 8.704 5.632 17.408 11.264 21.504 5.632 4.096 16.896 8.704 28.16 8.704l395.776-3.584c22.528 0 39.936-13.312 39.936-30.72s-16.896-30.208-39.424-30.208z" p-id="2745"></path></svg>