<?xml version="1.0" standalone="no"?><!DOCTYPE svg PUBLIC "-//W3C//DTD SVG 1.1//EN" "http://www.w3.org/Graphics/SVG/1.1/DTD/svg11.dtd"><svg t="1586844731610" class="icon" viewBox="0 0 1024 1024" version="1.1" xmlns="http://www.w3.org/2000/svg" p-id="1241" xmlns:xlink="http://www.w3.org/1999/xlink" width="200" height="200"><defs><style type="text/css"></style></defs><path d="M979.65 953.28H44.35C24.83 953.28 9 969.12 9 988.64S24.83 1024 44.35 1024h935.3c19.52 0 35.35-15.84 35.35-35.36s-15.83-35.36-35.35-35.36zM115.05 839.16h138.37c19.52 0 35.35-15.84 35.35-35.36V269.23c0-19.52-15.83-35.36-35.35-35.36H115.05c-19.52 0-35.35 15.84-35.35 35.36V803.8c0 19.53 15.84 35.36 35.35 35.36z m35.36-534.57h67.67v463.85h-67.67V304.59zM442.82 839.16h138.37c19.52 0 35.35-15.84 35.35-35.36V35.36C616.54 15.84 600.7 0 581.18 0H442.82c-19.52 0-35.35 15.84-35.35 35.36V803.8c-0.01 19.53 15.83 35.36 35.35 35.36z m35.35-768.44h67.67v697.72h-67.67V70.72zM770.58 839.16h138.37c19.52 0 35.35-15.84 35.35-35.36V269.23c0-19.52-15.83-35.36-35.35-35.36H770.58c-19.52 0-35.35 15.84-35.35 35.36V803.8c0 19.53 15.83 35.36 35.35 35.36z m35.35-534.57h67.67v463.85h-67.67V304.59z" p-id="1242"></path></svg>