<?xml version="1.0" standalone="no"?><!DOCTYPE svg PUBLIC "-//W3C//DTD SVG 1.1//EN" "http://www.w3.org/Graphics/SVG/1.1/DTD/svg11.dtd"><svg t="1587434893764" class="icon" viewBox="0 0 1172 1024" version="1.1" xmlns="http://www.w3.org/2000/svg" p-id="12765" xmlns:xlink="http://www.w3.org/1999/xlink" width="228.90625" height="200"><defs><style type="text/css"></style></defs><path d="M32 613.818182h453.818182c20.363636 0 32-14.545455 32-32 0-20.363636-14.545455-32-32-32h-453.818182c-17.454545-2.909091-32 11.636364-32 29.090909s14.545455 34.909091 32 34.909091zM32 418.909091h453.818182c20.363636 0 32-14.545455 32-32 0-20.363636-14.545455-32-32-32h-453.818182c-17.454545-2.909091-32 14.545455-32 29.090909 0 20.363636 14.545455 34.909091 32 34.909091zM96 224h453.818182c20.363636 0 32-14.545455 32-32s-14.545455-29.090909-32-29.090909h-453.818182c-17.454545-2.909091-29.090909 11.636364-29.090909 26.181818 0 20.363636 11.636364 34.909091 29.090909 34.909091z" fill="" p-id="12766"></path><path d="M1160.727273 532.363636l-256-360.727272c-8.727273-8.727273-17.454545-8.727273-23.272728-8.727273H744.727273V32c0-20.363636-14.545455-32-32-32h-517.818182C174.545455 0 162.909091 14.545455 162.909091 32s11.636364 29.090909 32 29.090909H680.727273V576c0 20.363636 14.545455 32 32 32H1099.636364V832h-69.818182c-14.545455-72.727273-81.454545-128-160-128s-142.545455 55.272727-160 128H445.090909c-14.545455-72.727273-81.454545-128-160-128s-142.545455 55.272727-160 128h-93.090909C11.636364 832 0 846.545455 0 864c0 20.363636 14.545455 32 32 32H133.818182c14.545455 72.727273 81.454545 128 160 128S436.363636 968.727273 453.818182 896h264.727273c14.545455 72.727273 81.454545 128 160 128s142.545455-55.272727 160-128H1140.363636c20.363636 0 32-14.545455 32-32v-320c-8.727273-5.818182-11.636364-8.727273-11.636363-11.636364zM290.909091 965.818182c-55.272727 0-96-43.636364-96-96C194.909091 814.545455 238.545455 773.818182 290.909091 773.818182s96 43.636364 96 96S346.181818 965.818182 290.909091 965.818182z m581.818182 0c-55.272727 0-96-43.636364-96-96 0-55.272727 43.636364-96 96-96 55.272727 0 96 43.636364 96 96s-40.727273 96-96 96z m-8.727273-741.818182L1093.818182 546.909091h-349.090909V224h119.272727z" fill="" p-id="12767"></path></svg>