<?xml version="1.0" standalone="no"?><!DOCTYPE svg PUBLIC "-//W3C//DTD SVG 1.1//EN" "http://www.w3.org/Graphics/SVG/1.1/DTD/svg11.dtd"><svg t="1586845497852" class="icon" viewBox="0 0 1024 1024" version="1.1" xmlns="http://www.w3.org/2000/svg" p-id="1377" xmlns:xlink="http://www.w3.org/1999/xlink" width="200" height="200"><defs><style type="text/css"></style></defs><path d="M408.3 925.67c-133.18 0-244.03-39.91-252.4-43a34.41 34.41 0 0 1-21.55-24.31c-3.3-13.85-78.19-341.35 142.39-553.96C491.49 97.4 953.79 38.12 973.37 35.7c9.82-1.21 19.72 1.86 27.11 8.46a34.393 34.393 0 0 1 11.53 25.95c-0.13 17.84-6.31 440.04-264.82 721.81C650.93 896.8 521.54 925.67 408.3 925.67zM197.75 823.94c72.32 21.9 344.51 89.5 498.71-78.56 195.76-213.37 236.28-524.87 244.6-635.24-116.63 19.23-453.45 86.58-616.56 243.81C159.57 512.91 186.23 755.6 197.75 823.94z" p-id="1378"></path><path d="M46.43 988.57c-10.36 0-20.6-4.66-27.37-13.52-11.54-15.11-8.65-36.7 6.45-48.24C513.48 554.09 717.1 292.25 719.09 289.65c11.59-15.06 33.2-17.89 48.25-6.33 15.08 11.57 17.92 33.16 6.36 48.24-8.36 10.88-210.18 270.93-706.4 649.94a34.302 34.302 0 0 1-20.87 7.07z" p-id="1379"></path></svg>