<?xml version="1.0" standalone="no"?><!DOCTYPE svg PUBLIC "-//W3C//DTD SVG 1.1//EN" "http://www.w3.org/Graphics/SVG/1.1/DTD/svg11.dtd"><svg t="1587434079343" class="icon" viewBox="0 0 1024 1024" version="1.1" xmlns="http://www.w3.org/2000/svg" p-id="7987" xmlns:xlink="http://www.w3.org/1999/xlink" width="200" height="200"><defs><style type="text/css"></style></defs><path d="M832.656 494.336c-2.736 0-5.424 0-8.032 0.064 4.208-20.96 6.368-42.384 6.368-63.728C831.008 254.96 687.92 112 512 112c-175.776 0-319.008 141.552-319.2 315.424l0.512 6.432C84.032 449.472 1.6 543.984 1.6 653.728c0 111.28 80.256 207.008 191.408 223.072h159.488c17.6 0 31.904-14.272 31.904-31.872s-14.288-31.856-31.904-31.856l-154.832 0.32c-74.144-10.912-132.256-81.072-132.256-159.664 0-78.256 58.816-145.632 136.912-156.784l27.424-3.952c15.696-2.24 27.36-15.68 27.36-31.536l-0.496-33.92c0.192-138.88 114.72-251.808 255.392-251.808 140.736 0 255.2 114.336 255.2 254.944 0 17.28-1.728 34.672-5.232 51.552l-8.416 40.544a31.904 31.904 0 0 0 7.904 28.16c7.024 7.52 17.104 11.408 27.568 9.824 0.704-0.064 20.672-2.688 43.632-2.688 69.488 0 125.952 57.168 125.952 127.536 0 70.304-57.232 127.472-127.6 127.472H607.68c-89.312 0-95.376-53.472-95.696-63.744V537.872l75.472 75.328a31.872 31.872 0 1 0 45.12-45.056l-128.368-128.16a31.968 31.968 0 0 0-22.72-9.312c-0.512 0-0.896-0.256-1.408-0.256a31.52 31.52 0 0 0-23.088 10.128l-128.496 128.24a31.872 31.872 0 1 0 45.12 45.056l74.56-74.448v209.936c0 44.048 33.312 127.472 159.52 127.472h223.296c105.52 0 191.392-85.792 191.392-191.2 0-105.408-85.12-191.264-189.744-191.264z" p-id="7988"></path></svg>