<?xml version="1.0" standalone="no"?><!DOCTYPE svg PUBLIC "-//W3C//DTD SVG 1.1//EN" "http://www.w3.org/Graphics/SVG/1.1/DTD/svg11.dtd"><svg t="1586844542910" class="icon" viewBox="0 0 1024 1024" version="1.1" xmlns="http://www.w3.org/2000/svg" p-id="1103" xmlns:xlink="http://www.w3.org/1999/xlink" width="200" height="200"><defs><style type="text/css"></style></defs><path d="M958.92 737.92H65.08c-18.27 0-33.08-14.8-33.08-33.08V77.58C32 59.31 46.8 44.5 65.08 44.5h893.85c18.27 0 33.08 14.8 33.08 33.08v627.27c-0.01 18.26-14.81 33.07-33.09 33.07zM98.15 671.77h827.69V110.65H98.15v561.12z" p-id="1104"></path><path d="M512.01 975.88c-18.27 0-33.08-14.8-33.08-33.08V711.83c0-18.27 14.8-33.08 33.08-33.08s33.08 14.8 33.08 33.08V942.8c-0.01 18.28-14.81 33.08-33.08 33.08z" p-id="1105"></path><path d="M762.03 979.5H261.97c-18.27 0-33.08-14.8-33.08-33.08s14.8-33.08 33.08-33.08h500.05c18.27 0 33.08 14.8 33.08 33.08s-14.8 33.08-33.07 33.08zM818.21 606.46h-62.5c-18.27 0-33.08-14.8-33.08-33.08 0-18.27 14.8-33.08 33.08-33.08h62.5c18.27 0 33.08 14.8 33.08 33.08 0 18.28-14.81 33.08-33.08 33.08z" p-id="1106"></path></svg>